<svg xmlns="http://www.w3.org/2000/svg" xmlns:xlink="http://www.w3.org/1999/xlink" width="500" zoomAndPan="magnify" viewBox="0 0 375 374.999991" height="500" preserveAspectRatio="xMidYMid meet" version="1.0"><defs><filter x="0%" y="0%" width="100%" height="100%" id="b898cf7811"><feColorMatrix values="0 0 0 0 1 0 0 0 0 1 0 0 0 0 1 0 0 0 1 0" color-interpolation-filters="sRGB"/></filter><g/><clipPath id="14b7571094"><path d="M 100 37 L 273.851562 37 L 273.851562 180.605469 L 100 180.605469 Z M 100 37 " clip-rule="nonzero"/></clipPath><clipPath id="45b820a3cd"><path d="M 90.101562 68 L 212 68 L 212 155 L 90.101562 155 Z M 90.101562 68 " clip-rule="nonzero"/></clipPath><clipPath id="ee1316bb1a"><path d="M 221 17.105469 L 246 17.105469 L 246 66 L 221 66 Z M 221 17.105469 " clip-rule="nonzero"/></clipPath><clipPath id="6b87f7c28c"><path d="M 189 166 L 213 166 L 213 180.605469 L 189 180.605469 Z M 189 166 " clip-rule="nonzero"/></clipPath><clipPath id="ceb19620a2"><path d="M 130 37 L 273.851562 37 L 273.851562 180.605469 L 130 180.605469 Z M 130 37 " clip-rule="nonzero"/></clipPath><mask id="716b8b2e17"><g filter="url(#b898cf7811)"><rect x="-37.5" width="450" fill="#000000" y="-37.499999" height="449.999989" fill-opacity="0.2"/></g></mask><clipPath id="6e93b68893"><path d="M 1 0.199219 L 143.851562 0.199219 L 143.851562 143.605469 L 1 143.605469 Z M 1 0.199219 " clip-rule="nonzero"/></clipPath><clipPath id="32d6cae809"><rect x="0" width="144" y="0" height="144"/></clipPath><mask id="7c387bdc70"><g filter="url(#b898cf7811)"><rect x="-37.5" width="450" fill="#000000" y="-37.499999" height="449.999989" fill-opacity="0.2"/></g></mask><clipPath id="c8f21a4a9e"><rect x="0" width="78" y="0" height="79"/></clipPath><mask id="e5f35a7010"><g filter="url(#b898cf7811)"><rect x="-37.5" width="450" fill="#000000" y="-37.499999" height="449.999989" fill-opacity="0.2"/></g></mask><clipPath id="d69c295cc5"><path d="M 1 0 L 25.121094 0 L 25.121094 26.640625 L 1 26.640625 Z M 1 0 " clip-rule="nonzero"/></clipPath><clipPath id="1fba05a4e2"><rect x="0" width="26" y="0" height="27"/></clipPath><mask id="59f57dbf24"><g filter="url(#b898cf7811)"><rect x="-37.5" width="450" fill="#000000" y="-37.499999" height="449.999989" fill-opacity="0.2"/></g></mask><clipPath id="237082e2e9"><path d="M 1 0.121094 L 25 0.121094 L 25 32 L 1 32 Z M 1 0.121094 " clip-rule="nonzero"/></clipPath><clipPath id="76d6413368"><rect x="0" width="26" y="0" height="33"/></clipPath><mask id="ed0224f8a4"><g filter="url(#b898cf7811)"><rect x="-37.5" width="450" fill="#000000" y="-37.499999" height="449.999989" fill-opacity="0.2"/></g></mask><clipPath id="5a368811c4"><path d="M 1 0.238281 L 25 0.238281 L 25 34 L 1 34 Z M 1 0.238281 " clip-rule="nonzero"/></clipPath><clipPath id="8d6467ceb9"><rect x="0" width="26" y="0" height="35"/></clipPath><clipPath id="333fc23274"><path d="M 221 17.105469 L 246 17.105469 L 246 63 L 221 63 Z M 221 17.105469 " clip-rule="nonzero"/></clipPath><mask id="e7998e37f0"><g filter="url(#b898cf7811)"><rect x="-37.5" width="450" fill="#000000" y="-37.499999" height="449.999989" fill-opacity="0.2"/></g></mask><clipPath id="2e9a3972d6"><path d="M 1 0.105469 L 25 0.105469 L 25 45.640625 L 1 45.640625 Z M 1 0.105469 " clip-rule="nonzero"/></clipPath><clipPath id="4bb70dcfef"><rect x="0" width="25" y="0" height="46"/></clipPath><clipPath id="b5fbc82824"><path d="M 101.367188 308 L 179 308 L 179 309 L 101.367188 309 Z M 101.367188 308 " clip-rule="nonzero"/></clipPath><clipPath id="9719029c9c"><path d="M 196 308 L 273.867188 308 L 273.867188 309 L 196 309 Z M 196 308 " clip-rule="nonzero"/></clipPath><clipPath id="f1e9f1654c"><path d="M 186 307.066406 L 189 307.066406 L 189 310.066406 L 186 310.066406 Z M 186 307.066406 " clip-rule="nonzero"/></clipPath></defs><g clip-path="url(#14b7571094)"><path fill="#0056a2" d="M 273.550781 90.167969 L 257.621094 83.027344 C 253.335938 93.027344 249.820312 103.464844 245.644531 113.570312 C 242.898438 120.382812 239.820312 126.976562 236.195312 133.238281 C 235.535156 134.335938 234.878906 135.546875 234.21875 136.535156 C 234 136.972656 233.667969 137.414062 233.339844 137.851562 L 233.230469 138.070312 C 232.242188 139.5 231.363281 140.929688 230.371094 142.246094 C 230.152344 142.027344 229.933594 141.917969 229.714844 141.699219 C 229.933594 141.917969 230.152344 142.027344 230.261719 142.246094 C 230.261719 142.246094 230.152344 142.355469 230.152344 142.46875 C 227.625 145.761719 224.988281 148.949219 222.023438 151.914062 C 221.914062 152.027344 221.804688 152.136719 221.691406 152.246094 C 218.945312 155.101562 215.980469 157.738281 212.902344 160.15625 C 205.652344 165.867188 197.632812 170.59375 189.171875 174 C 186.207031 175.207031 183.128906 176.304688 180.050781 177.183594 C 175.328125 178.503906 170.382812 179.492188 165.550781 180.042969 C 159.507812 180.703125 153.246094 180.8125 147.09375 180.042969 C 143.578125 179.601562 140.171875 178.941406 136.65625 178.0625 C 136.65625 178.0625 136.65625 178.0625 136.542969 178.0625 C 134.785156 177.625 132.917969 177.074219 131.160156 176.417969 C 128.523438 175.539062 125.996094 174.546875 123.46875 173.339844 C 121.054688 172.242188 118.746094 170.921875 116.4375 169.605469 C 114.570312 168.394531 112.703125 167.296875 110.945312 165.980469 C 108.527344 163.78125 106.222656 161.363281 104.132812 158.726562 C 102.703125 156.859375 101.277344 154.882812 100.066406 152.792969 C 101.277344 154.003906 102.59375 155.210938 103.914062 156.199219 C 105.453125 157.300781 107.101562 158.398438 108.746094 159.386719 C 113.363281 162.023438 118.304688 164 123.46875 165.320312 C 124.679688 165.648438 125.886719 165.867188 127.097656 166.199219 C 133.6875 167.515625 140.5 167.847656 147.203125 167.40625 C 150.277344 167.1875 153.246094 166.859375 156.320312 166.308594 C 162.804688 165.101562 169.285156 163.230469 175.4375 160.59375 C 176.976562 159.9375 178.40625 159.277344 179.941406 158.617188 C 183.019531 157.078125 186.207031 155.429688 189.0625 153.5625 C 198.289062 147.851562 206.421875 140.707031 212.792969 132.25 C 213.78125 131.039062 214.550781 129.832031 215.429688 128.511719 C 215.539062 128.402344 215.648438 128.292969 215.761719 128.074219 C 217.078125 126.316406 218.285156 124.558594 219.386719 122.800781 C 220.15625 121.703125 220.703125 120.601562 221.363281 119.503906 C 221.582031 119.175781 221.691406 118.953125 221.914062 118.625 C 229.605469 105.113281 234.546875 90.058594 240.371094 75.445312 L 226.199219 69.074219 C 226.308594 68.964844 266.847656 37.871094 266.847656 37.871094 Z M 273.550781 90.167969 " fill-opacity="1" fill-rule="nonzero"/></g><g clip-path="url(#45b820a3cd)"><path fill="#0056a2" d="M 211.035156 116.757812 C 210.597656 116.429688 210.15625 115.988281 209.828125 115.550781 C 207.191406 112.910156 204.445312 110.386719 201.695312 107.96875 L 201.585938 107.859375 C 200.488281 106.871094 199.28125 105.878906 198.070312 104.890625 C 197.851562 104.78125 197.742188 104.5625 197.523438 104.453125 C 194.773438 102.144531 192.027344 100.058594 189.0625 97.96875 C 188.953125 97.96875 188.953125 97.859375 188.84375 97.859375 C 183.898438 94.34375 178.515625 91.269531 173.132812 88.960938 C 172.800781 88.851562 172.363281 88.632812 172.03125 88.519531 C 172.03125 88.519531 171.921875 88.519531 171.921875 88.410156 C 155.113281 81.378906 136.875 80.5 123.46875 91.597656 C 121.820312 93.027344 120.285156 94.5625 118.855469 96.210938 C 113.03125 103.023438 109.515625 111.59375 107.539062 120.273438 C 105.5625 129.171875 104.023438 140.269531 106.222656 149.277344 C 106.222656 149.386719 106.769531 150.707031 107.210938 152.027344 C 107.648438 153.34375 107.867188 154.664062 106.988281 154.222656 L 106.550781 153.894531 C 105.121094 152.792969 103.695312 151.585938 102.375 150.265625 C 98.308594 146.09375 95.015625 140.929688 93.144531 135.765625 C 93.144531 135.765625 93.144531 135.765625 93.144531 135.65625 C 92.816406 134.777344 92.597656 133.898438 92.378906 133.019531 C 91.386719 129.503906 90.949219 125.875 90.949219 122.140625 C 90.179688 106.648438 95.234375 92.148438 104.242188 82.148438 C 105.890625 80.171875 107.539062 78.414062 109.515625 76.765625 C 114.242188 72.917969 119.515625 70.394531 125.117188 69.292969 L 125.226562 69.292969 C 125.449219 69.183594 125.667969 69.183594 125.996094 69.074219 C 133.6875 67.316406 141.269531 67.867188 148.519531 70.28125 C 148.628906 70.28125 148.738281 70.394531 148.851562 70.394531 C 157.96875 72.808594 166.976562 77.316406 175.109375 83.027344 C 180.164062 86.542969 184.886719 90.390625 189.5 94.5625 C 196.753906 101.046875 203.566406 108.1875 210.265625 115.550781 C 210.265625 115.988281 210.707031 116.429688 211.035156 116.757812 Z M 211.035156 116.757812 " fill-opacity="1" fill-rule="nonzero"/></g><path fill="#46b9ea" d="M 147.09375 114.230469 L 147.09375 162.023438 C 145.222656 162.132812 143.355469 162.242188 141.488281 162.242188 C 136.875 162.242188 132.371094 161.804688 127.976562 160.925781 C 126.4375 160.59375 124.898438 160.265625 123.359375 159.824219 L 123.359375 119.613281 C 130.5 119.285156 138.414062 117.746094 147.09375 114.230469 Z M 147.09375 114.230469 " fill-opacity="1" fill-rule="nonzero"/><path fill="#46b9ea" d="M 179.941406 93.90625 L 179.941406 152.574219 C 177.746094 153.671875 175.65625 154.664062 173.351562 155.652344 L 172.691406 155.871094 C 167.308594 158.066406 161.816406 159.714844 156.210938 160.816406 L 156.210938 109.945312 C 162.695312 106.539062 169.503906 102.144531 176.648438 96.433594 C 177.746094 95.664062 178.84375 94.785156 179.941406 93.90625 Z M 179.941406 93.90625 " fill-opacity="1" fill-rule="nonzero"/><path fill="#46b9ea" d="M 233.667969 77.972656 L 221.914062 72.699219 L 221.914062 107.089844 C 225.429688 99.726562 228.285156 91.925781 231.363281 83.90625 C 232.128906 81.929688 232.898438 79.953125 233.667969 77.972656 Z M 233.667969 77.972656 " fill-opacity="1" fill-rule="nonzero"/><g clip-path="url(#ee1316bb1a)"><path fill="#46b9ea" d="M 245.644531 17.105469 L 245.644531 49.628906 C 239.601562 53.691406 233.449219 57.648438 229.164062 60.503906 C 226.636719 62.152344 223.449219 64.351562 222.902344 64.789062 L 221.914062 65.558594 L 221.914062 49.847656 C 229.492188 40.179688 237.40625 29.300781 245.644531 17.105469 Z M 245.644531 17.105469 " fill-opacity="1" fill-rule="nonzero"/></g><path fill="#46b9ea" d="M 245.644531 126.425781 C 243.886719 129.941406 242.128906 133.457031 240.152344 136.863281 C 242.019531 138.402344 243.886719 139.941406 245.644531 141.367188 Z M 245.644531 126.425781 " fill-opacity="1" fill-rule="nonzero"/><path fill="#46b9ea" d="M 231.25 149.71875 L 231.140625 149.609375 C 229.382812 151.804688 227.40625 153.894531 225.429688 155.871094 C 224.328125 156.96875 223.121094 158.066406 222.023438 159.167969 L 222.023438 179.933594 L 245.753906 179.933594 L 245.753906 156.96875 C 241.578125 153.453125 237.625 149.71875 234 146.09375 Z M 231.25 149.71875 " fill-opacity="1" fill-rule="nonzero"/><path fill="#46b9ea" d="M 212.792969 60.945312 L 212.792969 110.933594 C 212.683594 110.824219 212.574219 110.714844 212.464844 110.496094 C 207.191406 104.78125 201.585938 98.957031 195.765625 93.574219 C 193.566406 91.488281 191.371094 89.511719 189.0625 87.53125 L 189.0625 85.882812 C 196.644531 78.960938 204.554688 70.722656 212.792969 60.945312 Z M 212.792969 60.945312 " fill-opacity="1" fill-rule="nonzero"/><path fill="#46b9ea" d="M 189.0625 104.453125 L 189.0625 147.191406 C 197.960938 141.257812 205.433594 133.898438 211.035156 125.546875 C 211.144531 125.328125 211.253906 125.109375 211.476562 124.996094 L 211.695312 124.777344 L 207.410156 120.601562 C 200.929688 114.121094 194.886719 108.847656 189.0625 104.453125 Z M 189.0625 104.453125 " fill-opacity="1" fill-rule="nonzero"/><g clip-path="url(#6b87f7c28c)"><path fill="#46b9ea" d="M 189.0625 180.042969 L 212.792969 180.042969 L 212.792969 166.746094 C 205.433594 172.132812 197.410156 176.417969 189.0625 179.601562 Z M 189.0625 180.042969 " fill-opacity="1" fill-rule="nonzero"/></g><g clip-path="url(#ceb19620a2)"><g mask="url(#716b8b2e17)"><g transform="matrix(1, 0, 0, 1, 130, 37)"><g clip-path="url(#32d6cae809)"><g clip-path="url(#6e93b68893)"><path fill="#197fab" d="M 143.550781 53.167969 L 127.621094 46.027344 C 123.335938 56.027344 119.820312 66.464844 115.644531 76.570312 C 112.898438 83.382812 109.820312 89.976562 106.195312 96.238281 C 105.535156 97.335938 104.878906 98.546875 104.21875 99.535156 C 104 99.972656 103.667969 100.414062 103.339844 100.851562 L 103.230469 101.070312 C 102.242188 102.5 101.363281 103.929688 100.371094 105.246094 C 100.152344 105.027344 99.933594 104.917969 99.714844 104.699219 C 99.933594 104.917969 100.152344 105.027344 100.261719 105.246094 C 100.261719 105.246094 100.152344 105.355469 100.152344 105.46875 C 97.625 108.761719 94.988281 111.949219 92.023438 114.914062 C 91.914062 115.027344 91.804688 115.136719 91.691406 115.246094 C 88.945312 118.101562 85.980469 120.738281 82.902344 123.15625 C 75.652344 128.867188 67.632812 133.59375 59.171875 137 C 56.207031 138.207031 53.128906 139.304688 50.050781 140.183594 C 45.328125 141.503906 40.382812 142.492188 35.550781 143.042969 C 29.507812 143.703125 23.246094 143.8125 17.09375 143.042969 C 13.578125 142.601562 10.171875 141.941406 6.65625 141.0625 C 6.65625 141.0625 6.65625 141.0625 6.542969 141.0625 C 4.785156 140.625 2.917969 140.074219 1.160156 139.417969 C 91.472656 152.160156 117.84375 60.199219 122.894531 37.898438 C 123.445312 35.371094 126.082031 33.941406 128.609375 34.820312 L 134.871094 37.128906 L 136.410156 3.398438 L 136.847656 0.652344 Z M 143.550781 53.167969 " fill-opacity="1" fill-rule="nonzero"/></g></g></g></g></g><g mask="url(#7c387bdc70)"><g transform="matrix(1, 0, 0, 1, 95, 77)"><g clip-path="url(#c8f21a4a9e)"><path fill="#197fab" d="M 76.8125 11.410156 C 60.003906 4.378906 41.765625 3.5 28.359375 14.597656 C 26.710938 16.027344 25.175781 17.5625 23.746094 19.210938 C 17.921875 26.023438 14.40625 34.59375 12.429688 43.273438 C 10.453125 52.171875 8.914062 63.269531 11.109375 72.277344 C 11.109375 72.386719 11.660156 73.707031 12.101562 75.027344 C 12.539062 76.34375 12.757812 77.664062 11.878906 77.222656 L 11.441406 76.894531 C -4.050781 58.324219 -1.632812 27.453125 16.496094 11.410156 C 33.304688 -3.640625 57.367188 1.851562 76.8125 11.410156 Z M 76.8125 11.410156 " fill-opacity="1" fill-rule="nonzero"/></g></g></g><g mask="url(#e5f35a7010)"><g transform="matrix(1, 0, 0, 1, 122, 114)"><g clip-path="url(#1fba05a4e2)"><g clip-path="url(#d69c295cc5)"><path fill="#197fab" d="M 1.359375 5.613281 C 8.5 5.394531 16.414062 3.746094 25.09375 0.230469 L 25.09375 15.503906 C 17.730469 19.457031 9.820312 23.191406 1.359375 26.597656 Z M 1.359375 5.613281 " fill-opacity="1" fill-rule="nonzero"/></g></g></g></g><g mask="url(#59f57dbf24)"><g transform="matrix(1, 0, 0, 1, 155, 93)"><g clip-path="url(#76d6413368)"><g clip-path="url(#237082e2e9)"><path fill="#197fab" d="M 21.648438 3.433594 C 22.746094 2.554688 23.84375 1.785156 24.832031 0.90625 L 24.832031 14.636719 C 17.691406 20.460938 9.78125 26.066406 1.101562 31.230469 L 1.101562 16.945312 C 7.695312 13.539062 14.503906 9.144531 21.648438 3.433594 Z M 21.648438 3.433594 " fill-opacity="1" fill-rule="nonzero"/></g></g></g></g><g mask="url(#ed0224f8a4)"><g transform="matrix(1, 0, 0, 1, 188, 60)"><g clip-path="url(#8d6467ceb9)"><g clip-path="url(#5a368811c4)"><path fill="#197fab" d="M 24.792969 0.945312 L 24.792969 14.789062 C 19.738281 20.941406 14.136719 27.3125 7.765625 33.574219 C 5.566406 31.488281 3.371094 29.511719 1.0625 27.53125 L 1.0625 25.882812 C 8.644531 18.960938 16.554688 10.722656 24.792969 0.945312 Z M 24.792969 0.945312 " fill-opacity="1" fill-rule="nonzero"/></g></g></g></g><g clip-path="url(#333fc23274)"><g mask="url(#e7998e37f0)"><g transform="matrix(1, 0, 0, 1, 221, 17)"><g clip-path="url(#4bb70dcfef)"><g clip-path="url(#2e9a3972d6)"><path fill="#197fab" d="M 24.644531 0.214844 C 24.316406 1.425781 17.941406 21.203125 1.023438 45.59375 L 1.023438 32.847656 C 8.492188 23.179688 16.402344 12.300781 24.644531 0.214844 Z M 24.644531 0.214844 " fill-opacity="1" fill-rule="nonzero"/></g></g></g></g></g><g fill="#0056a2" fill-opacity="1"><g transform="translate(97.972868, 226.377172)"><g><path d="M 27.3125 -4.875 C 25.988281 -3.125 24.304688 -1.769531 22.265625 -0.8125 C 20.222656 0.132812 17.976562 0.609375 15.53125 0.609375 C 11.25 0.609375 7.789062 -0.734375 5.15625 -3.421875 C 2.519531 -6.117188 1.203125 -9.648438 1.203125 -14.015625 C 1.203125 -19.054688 2.882812 -22.96875 6.25 -25.75 C 9.007812 -28.019531 12.128906 -29.15625 15.609375 -29.15625 C 17.742188 -29.15625 19.859375 -28.8125 21.953125 -28.125 C 22.648438 -27.863281 23.226562 -27.734375 23.6875 -27.734375 C 24.601562 -27.734375 25.191406 -28.207031 25.453125 -29.15625 L 26.359375 -29.15625 L 26.75 -19.40625 L 25.75 -19.40625 C 25.351562 -20.820312 24.953125 -21.898438 24.546875 -22.640625 C 24.140625 -23.390625 23.59375 -24.113281 22.90625 -24.8125 C 21.15625 -26.5625 19.015625 -27.4375 16.484375 -27.4375 C 13.347656 -27.4375 10.851562 -26.269531 9 -23.9375 C 7.144531 -21.613281 6.21875 -18.492188 6.21875 -14.578125 C 6.21875 -9.429688 7.539062 -5.765625 10.1875 -3.578125 C 12.019531 -2.054688 14.257812 -1.296875 16.90625 -1.296875 C 20.300781 -1.296875 23.507812 -2.75 26.53125 -5.65625 Z M 27.3125 -4.875 "/></g></g></g><g fill="#0056a2" fill-opacity="1"><g transform="translate(126.745052, 226.377172)"><g><path d="M 25.75 -7.296875 L 23.8125 0 L 0.515625 0 L 0.515625 -0.8125 C 2.097656 -0.9375 3.117188 -1.234375 3.578125 -1.703125 C 4.035156 -2.179688 4.265625 -3.179688 4.265625 -4.703125 L 4.265625 -23.859375 C 4.265625 -25.378906 4.039062 -26.367188 3.59375 -26.828125 C 3.15625 -27.296875 2.128906 -27.597656 0.515625 -27.734375 L 0.515625 -28.5625 L 23.421875 -28.5625 L 23.5625 -22.390625 L 22.46875 -22.390625 C 22.101562 -24.316406 21.53125 -25.550781 20.75 -26.09375 C 19.96875 -26.644531 18.359375 -26.921875 15.921875 -26.921875 L 10.09375 -26.921875 C 9.519531 -26.921875 9.140625 -26.828125 8.953125 -26.640625 C 8.765625 -26.453125 8.671875 -26.054688 8.671875 -25.453125 L 8.671875 -15.875 L 15.3125 -15.875 C 17.070312 -15.875 18.226562 -16.117188 18.78125 -16.609375 C 19.34375 -17.097656 19.769531 -18.21875 20.0625 -19.96875 L 21.046875 -19.96875 L 21.046875 -9.96875 L 20.0625 -9.96875 C 19.769531 -11.75 19.347656 -12.882812 18.796875 -13.375 C 18.253906 -13.863281 17.09375 -14.109375 15.3125 -14.109375 L 8.671875 -14.109375 L 8.671875 -3.453125 C 8.671875 -2.671875 8.785156 -2.210938 9.015625 -2.078125 C 9.421875 -1.753906 10.816406 -1.59375 13.203125 -1.59375 L 14.359375 -1.59375 C 17.441406 -1.59375 19.644531 -1.957031 20.96875 -2.6875 C 22.289062 -3.425781 23.484375 -4.960938 24.546875 -7.296875 Z M 25.75 -7.296875 "/></g></g></g><g fill="#0056a2" fill-opacity="1"><g transform="translate(153.101584, 226.377172)"><g><path d="M 30.5 -27.734375 C 29.125 -27.597656 28.175781 -27.34375 27.65625 -26.96875 C 26.820312 -26.382812 26.40625 -24.800781 26.40625 -22.21875 L 26.40625 0.46875 L 25.671875 0.46875 L 6.59375 -23.25 L 6.59375 -6.34375 C 6.59375 -4.15625 6.851562 -2.707031 7.375 -2 C 7.894531 -1.300781 8.988281 -0.90625 10.65625 -0.8125 L 10.65625 0 L 0.515625 0 L 0.515625 -0.8125 C 2.296875 -0.9375 3.4375 -1.332031 3.9375 -2 C 4.445312 -2.675781 4.703125 -4.125 4.703125 -6.34375 L 4.703125 -25.359375 C 3.835938 -26.367188 3.148438 -27.015625 2.640625 -27.296875 C 2.140625 -27.585938 1.429688 -27.734375 0.515625 -27.734375 L 0.515625 -28.5625 L 7.890625 -28.5625 L 24.5 -7.671875 L 24.5 -22.21875 C 24.5 -24.863281 24.082031 -26.472656 23.25 -27.046875 C 22.644531 -27.390625 21.679688 -27.617188 20.359375 -27.734375 L 20.359375 -28.5625 L 30.5 -28.5625 Z M 30.5 -27.734375 "/></g></g></g><g fill="#0056a2" fill-opacity="1"><g transform="translate(184.246289, 226.377172)"><g><path d="M 25.578125 -21.21875 L 24.546875 -21.21875 C 24.054688 -23.613281 23.398438 -25.132812 22.578125 -25.78125 C 21.765625 -26.425781 20.132812 -26.75 17.6875 -26.75 L 15.359375 -26.75 L 15.359375 -4.703125 C 15.359375 -3.117188 15.601562 -2.097656 16.09375 -1.640625 C 16.582031 -1.179688 17.71875 -0.90625 19.5 -0.8125 L 19.5 0 L 6.90625 0 L 6.90625 -0.8125 C 8.6875 -0.9375 9.804688 -1.234375 10.265625 -1.703125 C 10.722656 -2.179688 10.953125 -3.335938 10.953125 -5.171875 L 10.953125 -26.75 L 8.625 -26.75 C 6.207031 -26.75 4.585938 -26.414062 3.765625 -25.75 C 2.953125 -25.09375 2.285156 -23.582031 1.765625 -21.21875 L 0.734375 -21.21875 L 1 -28.5625 L 25.328125 -28.5625 Z M 25.578125 -21.21875 "/></g></g></g><g fill="#0056a2" fill-opacity="1"><g transform="translate(210.60282, 226.377172)"><g><path d="M 25.75 -7.296875 L 23.8125 0 L 0.515625 0 L 0.515625 -0.8125 C 2.097656 -0.9375 3.117188 -1.234375 3.578125 -1.703125 C 4.035156 -2.179688 4.265625 -3.179688 4.265625 -4.703125 L 4.265625 -23.859375 C 4.265625 -25.378906 4.039062 -26.367188 3.59375 -26.828125 C 3.15625 -27.296875 2.128906 -27.597656 0.515625 -27.734375 L 0.515625 -28.5625 L 23.421875 -28.5625 L 23.5625 -22.390625 L 22.46875 -22.390625 C 22.101562 -24.316406 21.53125 -25.550781 20.75 -26.09375 C 19.96875 -26.644531 18.359375 -26.921875 15.921875 -26.921875 L 10.09375 -26.921875 C 9.519531 -26.921875 9.140625 -26.828125 8.953125 -26.640625 C 8.765625 -26.453125 8.671875 -26.054688 8.671875 -25.453125 L 8.671875 -15.875 L 15.3125 -15.875 C 17.070312 -15.875 18.226562 -16.117188 18.78125 -16.609375 C 19.34375 -17.097656 19.769531 -18.21875 20.0625 -19.96875 L 21.046875 -19.96875 L 21.046875 -9.96875 L 20.0625 -9.96875 C 19.769531 -11.75 19.347656 -12.882812 18.796875 -13.375 C 18.253906 -13.863281 17.09375 -14.109375 15.3125 -14.109375 L 8.671875 -14.109375 L 8.671875 -3.453125 C 8.671875 -2.671875 8.785156 -2.210938 9.015625 -2.078125 C 9.421875 -1.753906 10.816406 -1.59375 13.203125 -1.59375 L 14.359375 -1.59375 C 17.441406 -1.59375 19.644531 -1.957031 20.96875 -2.6875 C 22.289062 -3.425781 23.484375 -4.960938 24.546875 -7.296875 Z M 25.75 -7.296875 "/></g></g></g><g fill="#0056a2" fill-opacity="1"><g transform="translate(236.959351, 226.377172)"><g><path d="M 28.4375 0 L 21.484375 0 L 11.21875 -13.28125 L 8.796875 -13.203125 L 8.796875 -4.703125 C 8.796875 -3.148438 9.023438 -2.144531 9.484375 -1.6875 C 9.953125 -1.226562 11.019531 -0.9375 12.6875 -0.8125 L 12.6875 0 L 0.734375 0 L 0.734375 -0.8125 C 2.347656 -0.9375 3.363281 -1.25 3.78125 -1.75 C 4.195312 -2.25 4.40625 -3.390625 4.40625 -5.171875 L 4.40625 -23.859375 C 4.40625 -25.378906 4.195312 -26.363281 3.78125 -26.8125 C 3.363281 -27.257812 2.347656 -27.566406 0.734375 -27.734375 L 0.734375 -28.5625 L 12.640625 -28.5625 C 14.648438 -28.5625 16.488281 -28.300781 18.15625 -27.78125 C 19.832031 -27.257812 21.085938 -26.554688 21.921875 -25.671875 C 23.035156 -24.398438 23.59375 -22.832031 23.59375 -20.96875 C 23.59375 -18.84375 22.859375 -17.1875 21.390625 -16 C 20.160156 -15 18.296875 -14.253906 15.796875 -13.765625 L 24.671875 -2.84375 C 25.273438 -2.125 25.84375 -1.617188 26.375 -1.328125 C 26.90625 -1.046875 27.59375 -0.875 28.4375 -0.8125 Z M 18.890625 -21.046875 C 18.890625 -23.066406 18.25 -24.554688 16.96875 -25.515625 C 15.695312 -26.484375 13.707031 -26.96875 11 -26.96875 C 10.132812 -26.96875 9.550781 -26.859375 9.25 -26.640625 C 8.945312 -26.421875 8.796875 -26.007812 8.796875 -25.40625 L 8.796875 -14.796875 C 10.898438 -14.859375 12.453125 -14.976562 13.453125 -15.15625 C 14.460938 -15.34375 15.457031 -15.710938 16.4375 -16.265625 C 18.070312 -17.128906 18.890625 -18.722656 18.890625 -21.046875 Z M 18.890625 -21.046875 "/></g></g></g><g fill="#0056a2" fill-opacity="1"><g transform="translate(84.824431, 286.377168)"><g><path d="M 25.578125 -21.21875 L 24.546875 -21.21875 C 24.054688 -23.613281 23.398438 -25.132812 22.578125 -25.78125 C 21.765625 -26.425781 20.132812 -26.75 17.6875 -26.75 L 15.359375 -26.75 L 15.359375 -4.703125 C 15.359375 -3.117188 15.601562 -2.097656 16.09375 -1.640625 C 16.582031 -1.179688 17.71875 -0.90625 19.5 -0.8125 L 19.5 0 L 6.90625 0 L 6.90625 -0.8125 C 8.6875 -0.9375 9.804688 -1.234375 10.265625 -1.703125 C 10.722656 -2.179688 10.953125 -3.335938 10.953125 -5.171875 L 10.953125 -26.75 L 8.625 -26.75 C 6.207031 -26.75 4.585938 -26.414062 3.765625 -25.75 C 2.953125 -25.09375 2.285156 -23.582031 1.765625 -21.21875 L 0.734375 -21.21875 L 1 -28.5625 L 25.328125 -28.5625 Z M 25.578125 -21.21875 "/></g></g></g><g fill="#0056a2" fill-opacity="1"><g transform="translate(111.180963, 286.377168)"><g><path d="M 28.4375 0 L 21.484375 0 L 11.21875 -13.28125 L 8.796875 -13.203125 L 8.796875 -4.703125 C 8.796875 -3.148438 9.023438 -2.144531 9.484375 -1.6875 C 9.953125 -1.226562 11.019531 -0.9375 12.6875 -0.8125 L 12.6875 0 L 0.734375 0 L 0.734375 -0.8125 C 2.347656 -0.9375 3.363281 -1.25 3.78125 -1.75 C 4.195312 -2.25 4.40625 -3.390625 4.40625 -5.171875 L 4.40625 -23.859375 C 4.40625 -25.378906 4.195312 -26.363281 3.78125 -26.8125 C 3.363281 -27.257812 2.347656 -27.566406 0.734375 -27.734375 L 0.734375 -28.5625 L 12.640625 -28.5625 C 14.648438 -28.5625 16.488281 -28.300781 18.15625 -27.78125 C 19.832031 -27.257812 21.085938 -26.554688 21.921875 -25.671875 C 23.035156 -24.398438 23.59375 -22.832031 23.59375 -20.96875 C 23.59375 -18.84375 22.859375 -17.1875 21.390625 -16 C 20.160156 -15 18.296875 -14.253906 15.796875 -13.765625 L 24.671875 -2.84375 C 25.273438 -2.125 25.84375 -1.617188 26.375 -1.328125 C 26.90625 -1.046875 27.59375 -0.875 28.4375 -0.8125 Z M 18.890625 -21.046875 C 18.890625 -23.066406 18.25 -24.554688 16.96875 -25.515625 C 15.695312 -26.484375 13.707031 -26.96875 11 -26.96875 C 10.132812 -26.96875 9.550781 -26.859375 9.25 -26.640625 C 8.945312 -26.421875 8.796875 -26.007812 8.796875 -25.40625 L 8.796875 -14.796875 C 10.898438 -14.859375 12.453125 -14.976562 13.453125 -15.15625 C 14.460938 -15.34375 15.457031 -15.710938 16.4375 -16.265625 C 18.070312 -17.128906 18.890625 -18.722656 18.890625 -21.046875 Z M 18.890625 -21.046875 "/></g></g></g><g fill="#0056a2" fill-opacity="1"><g transform="translate(139.953147, 286.377168)"><g><path d="M 30.453125 0 L 19.453125 0 L 19.453125 -0.8125 C 20.628906 -0.8125 21.4375 -0.941406 21.875 -1.203125 C 22.269531 -1.410156 22.46875 -1.757812 22.46875 -2.25 C 22.46875 -2.9375 22.195312 -3.910156 21.65625 -5.171875 L 19.890625 -9.3125 L 8.578125 -9.3125 L 6.59375 -4.265625 C 6.363281 -3.660156 6.25 -3.101562 6.25 -2.59375 C 6.25 -1.40625 7.226562 -0.8125 9.1875 -0.8125 L 9.1875 0 L 0.640625 0 L 0.640625 -0.8125 C 1.679688 -0.875 2.488281 -1.285156 3.0625 -2.046875 C 3.632812 -2.804688 4.613281 -4.753906 6 -7.890625 L 14.96875 -29.078125 L 15.828125 -29.078125 L 26.578125 -4.578125 C 27.328125 -2.960938 27.914062 -1.945312 28.34375 -1.53125 C 28.769531 -1.113281 29.472656 -0.875 30.453125 -0.8125 Z M 19.28125 -11.09375 L 14.28125 -22.953125 L 9.3125 -11.09375 Z M 19.28125 -11.09375 "/></g></g></g><g fill="#0056a2" fill-opacity="1"><g transform="translate(171.097852, 286.377168)"><g><path d="M 29.546875 -14.40625 C 29.546875 -10.039062 28.082031 -6.519531 25.15625 -3.84375 C 23.832031 -2.632812 22.09375 -1.691406 19.9375 -1.015625 C 17.78125 -0.335938 15.445312 0 12.9375 0 L 0.6875 0 L 0.6875 -0.8125 C 2.332031 -0.9375 3.375 -1.226562 3.8125 -1.6875 C 4.257812 -2.144531 4.484375 -3.148438 4.484375 -4.703125 L 4.484375 -23.859375 C 4.484375 -25.441406 4.273438 -26.445312 3.859375 -26.875 C 3.441406 -27.3125 2.382812 -27.597656 0.6875 -27.734375 L 0.6875 -28.5625 L 12.34375 -28.5625 C 18.40625 -28.5625 22.921875 -27.050781 25.890625 -24.03125 C 28.328125 -21.582031 29.546875 -18.375 29.546875 -14.40625 Z M 24.84375 -14.109375 C 24.84375 -18.878906 23.132812 -22.445312 19.71875 -24.8125 C 17.675781 -26.25 14.8125 -26.96875 11.125 -26.96875 C 10.238281 -26.96875 9.644531 -26.847656 9.34375 -26.609375 C 9.039062 -26.378906 8.890625 -25.9375 8.890625 -25.28125 L 8.890625 -3.359375 C 8.890625 -2.671875 9.046875 -2.203125 9.359375 -1.953125 C 9.679688 -1.710938 10.269531 -1.59375 11.125 -1.59375 C 14.695312 -1.59375 17.515625 -2.179688 19.578125 -3.359375 C 23.085938 -5.398438 24.84375 -8.984375 24.84375 -14.109375 Z M 24.84375 -14.109375 "/></g></g></g><g fill="#0056a2" fill-opacity="1"><g transform="translate(202.242557, 286.377168)"><g><path d="M 13.59375 0 L 0.78125 0 L 0.78125 -0.8125 C 2.59375 -0.875 3.742188 -1.132812 4.234375 -1.59375 C 4.722656 -2.050781 4.96875 -3.085938 4.96875 -4.703125 L 4.96875 -23.859375 C 4.96875 -25.441406 4.726562 -26.453125 4.25 -26.890625 C 3.769531 -27.335938 2.613281 -27.617188 0.78125 -27.734375 L 0.78125 -28.5625 L 13.59375 -28.5625 L 13.59375 -27.734375 C 11.78125 -27.648438 10.617188 -27.378906 10.109375 -26.921875 C 9.609375 -26.460938 9.359375 -25.441406 9.359375 -23.859375 L 9.359375 -4.703125 C 9.359375 -3.117188 9.617188 -2.085938 10.140625 -1.609375 C 10.660156 -1.140625 11.8125 -0.875 13.59375 -0.8125 Z M 13.59375 0 "/></g></g></g><g fill="#0056a2" fill-opacity="1"><g transform="translate(216.607077, 286.377168)"><g><path d="M 30.5 -27.734375 C 29.125 -27.597656 28.175781 -27.34375 27.65625 -26.96875 C 26.820312 -26.382812 26.40625 -24.800781 26.40625 -22.21875 L 26.40625 0.46875 L 25.671875 0.46875 L 6.59375 -23.25 L 6.59375 -6.34375 C 6.59375 -4.15625 6.851562 -2.707031 7.375 -2 C 7.894531 -1.300781 8.988281 -0.90625 10.65625 -0.8125 L 10.65625 0 L 0.515625 0 L 0.515625 -0.8125 C 2.296875 -0.9375 3.4375 -1.332031 3.9375 -2 C 4.445312 -2.675781 4.703125 -4.125 4.703125 -6.34375 L 4.703125 -25.359375 C 3.835938 -26.367188 3.148438 -27.015625 2.640625 -27.296875 C 2.140625 -27.585938 1.429688 -27.734375 0.515625 -27.734375 L 0.515625 -28.5625 L 7.890625 -28.5625 L 24.5 -7.671875 L 24.5 -22.21875 C 24.5 -24.863281 24.082031 -26.472656 23.25 -27.046875 C 22.644531 -27.390625 21.679688 -27.617188 20.359375 -27.734375 L 20.359375 -28.5625 L 30.5 -28.5625 Z M 30.5 -27.734375 "/></g></g></g><g fill="#0056a2" fill-opacity="1"><g transform="translate(247.751782, 286.377168)"><g><path d="M 30.59375 -14.5 C 29.320312 -14.382812 28.5 -14.117188 28.125 -13.703125 C 27.75 -13.285156 27.5625 -12.441406 27.5625 -11.171875 L 27.5625 -2.421875 C 26.695312 -1.671875 25.132812 -0.976562 22.875 -0.34375 C 20.625 0.289062 18.578125 0.609375 16.734375 0.609375 C 11.878906 0.609375 7.957031 -0.929688 4.96875 -4.015625 C 2.570312 -6.515625 1.375 -9.847656 1.375 -14.015625 C 1.375 -18.421875 2.757812 -22.046875 5.53125 -24.890625 C 8.3125 -27.734375 11.859375 -29.15625 16.171875 -29.15625 C 18.097656 -29.15625 20.054688 -28.828125 22.046875 -28.171875 C 22.796875 -27.878906 23.425781 -27.734375 23.9375 -27.734375 C 24.40625 -27.734375 24.8125 -27.867188 25.15625 -28.140625 C 25.5 -28.421875 25.742188 -28.757812 25.890625 -29.15625 L 26.828125 -29.15625 L 27.171875 -20.0625 L 26.1875 -20.0625 C 25.238281 -22.394531 24.21875 -24.0625 23.125 -25.0625 C 21.394531 -26.644531 19.320312 -27.4375 16.90625 -27.4375 C 13.863281 -27.4375 11.363281 -26.34375 9.40625 -24.15625 C 8.457031 -23.09375 7.703125 -21.644531 7.140625 -19.8125 C 6.578125 -17.988281 6.296875 -16.070312 6.296875 -14.0625 C 6.296875 -10.0625 7.304688 -6.90625 9.328125 -4.59375 C 11.359375 -2.28125 14.128906 -1.125 17.640625 -1.125 C 19.191406 -1.125 20.535156 -1.375 21.671875 -1.875 C 22.804688 -2.375 23.375 -2.972656 23.375 -3.671875 L 23.375 -10.65625 C 23.375 -12.4375 23.070312 -13.515625 22.46875 -13.890625 C 22.007812 -14.179688 21.046875 -14.382812 19.578125 -14.5 L 19.578125 -15.265625 L 30.59375 -15.265625 Z M 30.59375 -14.5 "/></g></g></g><g clip-path="url(#b5fbc82824)"><path fill="#0056a2" d="M 101.367188 308.394531 L 178.976562 308.394531 L 178.976562 308.753906 L 101.367188 308.753906 Z M 101.367188 308.394531 " fill-opacity="1" fill-rule="nonzero"/></g><g clip-path="url(#9719029c9c)"><path fill="#0056a2" d="M 196.011719 308.394531 L 273.621094 308.394531 L 273.621094 308.753906 L 196.011719 308.753906 Z M 196.011719 308.394531 " fill-opacity="1" fill-rule="nonzero"/></g><g clip-path="url(#f1e9f1654c)"><path fill="#0056a2" d="M 188.984375 308.574219 C 188.984375 308.636719 188.984375 308.703125 188.972656 308.753906 C 188.882812 309.488281 188.261719 310.054688 187.5 310.054688 C 186.742188 310.054688 186.121094 309.488281 186.03125 308.753906 C 186.019531 308.6875 186.019531 308.636719 186.019531 308.574219 C 186.019531 308.507812 186.019531 308.445312 186.03125 308.394531 C 186.109375 307.65625 186.726562 307.089844 187.488281 307.089844 C 188.25 307.089844 188.867188 307.65625 188.957031 308.394531 C 188.972656 308.457031 188.984375 308.523438 188.984375 308.574219 Z M 188.984375 308.574219 " fill-opacity="1" fill-rule="nonzero"/></g><g fill="#197fab" fill-opacity="1"><g transform="translate(119.987406, 333.413445)"><g><path d="M 7.765625 -2.578125 L 8.125 -2.578125 C 8.175781 -2.316406 8.21875 -1.984375 8.25 -1.578125 C 8.289062 -1.179688 8.300781 -0.789062 8.28125 -0.40625 C 8.144531 -0.289062 7.976562 -0.195312 7.78125 -0.125 C 7.582031 -0.0625 7.367188 -0.0078125 7.140625 0.03125 C 6.921875 0.0820312 6.691406 0.117188 6.453125 0.140625 C 6.222656 0.160156 6.003906 0.171875 5.796875 0.171875 C 5.003906 0.171875 4.296875 0.0703125 3.671875 -0.125 C 3.046875 -0.332031 2.519531 -0.644531 2.09375 -1.0625 C 1.664062 -1.476562 1.332031 -2.007812 1.09375 -2.65625 C 0.863281 -3.300781 0.75 -4.070312 0.75 -4.96875 C 0.75 -5.894531 0.875 -6.679688 1.125 -7.328125 C 1.382812 -7.972656 1.734375 -8.5 2.171875 -8.90625 C 2.609375 -9.320312 3.113281 -9.625 3.6875 -9.8125 C 4.257812 -10 4.863281 -10.09375 5.5 -10.09375 C 6.125 -10.09375 6.648438 -10.050781 7.078125 -9.96875 C 7.503906 -9.894531 7.878906 -9.78125 8.203125 -9.625 C 8.203125 -9.46875 8.195312 -9.285156 8.1875 -9.078125 C 8.175781 -8.878906 8.160156 -8.664062 8.140625 -8.4375 C 8.117188 -8.207031 8.09375 -7.984375 8.0625 -7.765625 C 8.039062 -7.554688 8.015625 -7.359375 7.984375 -7.171875 L 7.625 -7.171875 L 6.875 -9.21875 C 6.769531 -9.28125 6.597656 -9.316406 6.359375 -9.328125 C 6.117188 -9.347656 5.878906 -9.359375 5.640625 -9.359375 C 5.171875 -9.359375 4.722656 -9.269531 4.296875 -9.09375 C 3.878906 -8.925781 3.507812 -8.660156 3.1875 -8.296875 C 2.875 -7.929688 2.625 -7.472656 2.4375 -6.921875 C 2.25 -6.367188 2.15625 -5.71875 2.15625 -4.96875 C 2.15625 -4.289062 2.238281 -3.679688 2.40625 -3.140625 C 2.582031 -2.597656 2.828125 -2.132812 3.140625 -1.75 C 3.460938 -1.363281 3.851562 -1.066406 4.3125 -0.859375 C 4.78125 -0.660156 5.3125 -0.5625 5.90625 -0.5625 C 6.21875 -0.5625 6.476562 -0.582031 6.6875 -0.625 C 6.894531 -0.675781 7.03125 -0.742188 7.09375 -0.828125 Z M 7.765625 -2.578125 "/></g></g></g><g fill="#197fab" fill-opacity="1"><g transform="translate(132.523873, 333.413445)"><g><path d="M 0.75 -4.96875 C 0.75 -5.707031 0.847656 -6.390625 1.046875 -7.015625 C 1.253906 -7.640625 1.550781 -8.179688 1.9375 -8.640625 C 2.320312 -9.097656 2.789062 -9.453125 3.34375 -9.703125 C 3.90625 -9.960938 4.539062 -10.09375 5.25 -10.09375 C 5.957031 -10.09375 6.585938 -9.960938 7.140625 -9.703125 C 7.703125 -9.453125 8.175781 -9.097656 8.5625 -8.640625 C 8.945312 -8.179688 9.238281 -7.640625 9.4375 -7.015625 C 9.644531 -6.390625 9.75 -5.707031 9.75 -4.96875 C 9.75 -4.226562 9.644531 -3.539062 9.4375 -2.90625 C 9.238281 -2.28125 8.945312 -1.738281 8.5625 -1.28125 C 8.175781 -0.820312 7.703125 -0.460938 7.140625 -0.203125 C 6.585938 0.046875 5.957031 0.171875 5.25 0.171875 C 4.539062 0.171875 3.90625 0.046875 3.34375 -0.203125 C 2.789062 -0.460938 2.320312 -0.820312 1.9375 -1.28125 C 1.550781 -1.738281 1.253906 -2.28125 1.046875 -2.90625 C 0.847656 -3.539062 0.75 -4.226562 0.75 -4.96875 Z M 2.265625 -4.96875 C 2.265625 -4.363281 2.328125 -3.789062 2.453125 -3.25 C 2.585938 -2.71875 2.78125 -2.253906 3.03125 -1.859375 C 3.289062 -1.460938 3.613281 -1.144531 4 -0.90625 C 4.382812 -0.675781 4.84375 -0.5625 5.375 -0.5625 C 5.851562 -0.5625 6.269531 -0.675781 6.625 -0.90625 C 6.988281 -1.144531 7.285156 -1.460938 7.515625 -1.859375 C 7.753906 -2.253906 7.929688 -2.71875 8.046875 -3.25 C 8.171875 -3.789062 8.234375 -4.363281 8.234375 -4.96875 C 8.234375 -5.570312 8.171875 -6.140625 8.046875 -6.671875 C 7.921875 -7.210938 7.726562 -7.679688 7.46875 -8.078125 C 7.21875 -8.472656 6.898438 -8.785156 6.515625 -9.015625 C 6.128906 -9.242188 5.671875 -9.359375 5.140625 -9.359375 C 4.617188 -9.359375 4.175781 -9.242188 3.8125 -9.015625 C 3.445312 -8.785156 3.148438 -8.472656 2.921875 -8.078125 C 2.691406 -7.679688 2.523438 -7.210938 2.421875 -6.671875 C 2.316406 -6.140625 2.265625 -5.570312 2.265625 -4.96875 Z M 2.265625 -4.96875 "/></g></g></g><g fill="#197fab" fill-opacity="1"><g transform="translate(146.421603, 333.413445)"><g><path d="M 2.9375 -0.75 C 3.15625 -0.707031 3.363281 -0.660156 3.5625 -0.609375 C 3.757812 -0.554688 3.953125 -0.488281 4.140625 -0.40625 L 4.140625 0 L 0.40625 0 L 0.40625 -0.40625 C 0.613281 -0.5 0.8125 -0.566406 1 -0.609375 C 1.195312 -0.660156 1.390625 -0.707031 1.578125 -0.75 L 1.578125 -9.171875 C 1.328125 -9.210938 1.109375 -9.265625 0.921875 -9.328125 C 0.734375 -9.390625 0.5625 -9.453125 0.40625 -9.515625 L 0.40625 -9.9375 L 1.65625 -9.9375 C 2.039062 -9.9375 2.457031 -9.953125 2.90625 -9.984375 C 3.351562 -10.023438 3.789062 -10.046875 4.21875 -10.046875 C 4.675781 -10.046875 5.101562 -9.992188 5.5 -9.890625 C 5.90625 -9.785156 6.253906 -9.617188 6.546875 -9.390625 C 6.847656 -9.160156 7.078125 -8.867188 7.234375 -8.515625 C 7.398438 -8.171875 7.484375 -7.753906 7.484375 -7.265625 C 7.484375 -6.578125 7.300781 -6.003906 6.9375 -5.546875 C 6.582031 -5.085938 6.09375 -4.757812 5.46875 -4.5625 C 5.875 -3.925781 6.296875 -3.289062 6.734375 -2.65625 C 7.179688 -2.019531 7.644531 -1.390625 8.125 -0.765625 L 8.890625 -0.359375 L 8.890625 0 L 7.171875 0 L 6.640625 -0.390625 C 6.378906 -0.722656 6.140625 -1.046875 5.921875 -1.359375 C 5.703125 -1.679688 5.492188 -2.003906 5.296875 -2.328125 C 5.109375 -2.660156 4.929688 -2.992188 4.765625 -3.328125 C 4.609375 -3.660156 4.441406 -4.015625 4.265625 -4.390625 L 2.9375 -4.390625 Z M 3.90625 -9.3125 C 3.675781 -9.3125 3.488281 -9.304688 3.34375 -9.296875 C 3.195312 -9.285156 3.0625 -9.265625 2.9375 -9.234375 L 2.9375 -5 L 3.953125 -5 C 4.609375 -5 5.128906 -5.207031 5.515625 -5.625 C 5.898438 -6.039062 6.09375 -6.585938 6.09375 -7.265625 C 6.09375 -7.960938 5.882812 -8.476562 5.46875 -8.8125 C 5.0625 -9.144531 4.539062 -9.3125 3.90625 -9.3125 Z M 3.90625 -9.3125 "/></g></g></g><g fill="#197fab" fill-opacity="1"><g transform="translate(158.858815, 333.413445)"><g><path d="M 2.9375 -0.75 C 3.1875 -0.71875 3.425781 -0.671875 3.65625 -0.609375 C 3.882812 -0.554688 4.097656 -0.488281 4.296875 -0.40625 L 4.296875 0 L 0.40625 0 L 0.40625 -0.40625 C 0.59375 -0.5 0.785156 -0.566406 0.984375 -0.609375 C 1.191406 -0.660156 1.390625 -0.707031 1.578125 -0.75 L 1.578125 -9.171875 C 1.359375 -9.203125 1.15625 -9.25 0.96875 -9.3125 C 0.78125 -9.375 0.59375 -9.441406 0.40625 -9.515625 L 0.40625 -9.9375 L 1.6875 -9.9375 C 2.0625 -9.9375 2.472656 -9.953125 2.921875 -9.984375 C 3.367188 -10.023438 3.796875 -10.046875 4.203125 -10.046875 C 4.660156 -10.046875 5.113281 -9.992188 5.5625 -9.890625 C 6.007812 -9.796875 6.40625 -9.628906 6.75 -9.390625 C 7.09375 -9.148438 7.367188 -8.832031 7.578125 -8.4375 C 7.796875 -8.050781 7.90625 -7.566406 7.90625 -6.984375 C 7.90625 -6.421875 7.796875 -5.941406 7.578125 -5.546875 C 7.359375 -5.148438 7.066406 -4.820312 6.703125 -4.5625 C 6.335938 -4.3125 5.921875 -4.125 5.453125 -4 C 4.992188 -3.882812 4.519531 -3.828125 4.03125 -3.828125 C 3.976562 -3.828125 3.898438 -3.828125 3.796875 -3.828125 C 3.703125 -3.828125 3.597656 -3.828125 3.484375 -3.828125 C 3.367188 -3.835938 3.257812 -3.847656 3.15625 -3.859375 C 3.050781 -3.867188 2.976562 -3.878906 2.9375 -3.890625 Z M 3.90625 -9.3125 C 3.675781 -9.3125 3.488281 -9.304688 3.34375 -9.296875 C 3.207031 -9.285156 3.070312 -9.265625 2.9375 -9.234375 L 2.9375 -4.640625 C 2.976562 -4.617188 3.046875 -4.601562 3.140625 -4.59375 C 3.234375 -4.59375 3.328125 -4.585938 3.421875 -4.578125 C 3.523438 -4.566406 3.625 -4.5625 3.71875 -4.5625 C 3.8125 -4.5625 3.882812 -4.5625 3.9375 -4.5625 C 4.269531 -4.5625 4.582031 -4.609375 4.875 -4.703125 C 5.175781 -4.796875 5.4375 -4.941406 5.65625 -5.140625 C 5.875 -5.335938 6.050781 -5.585938 6.1875 -5.890625 C 6.320312 -6.191406 6.390625 -6.554688 6.390625 -6.984375 C 6.390625 -7.753906 6.164062 -8.332031 5.71875 -8.71875 C 5.28125 -9.113281 4.675781 -9.3125 3.90625 -9.3125 Z M 3.90625 -9.3125 "/></g></g></g><g fill="#197fab" fill-opacity="1"><g transform="translate(170.714656, 333.413445)"><g><path d="M 0.75 -4.96875 C 0.75 -5.707031 0.847656 -6.390625 1.046875 -7.015625 C 1.253906 -7.640625 1.550781 -8.179688 1.9375 -8.640625 C 2.320312 -9.097656 2.789062 -9.453125 3.34375 -9.703125 C 3.90625 -9.960938 4.539062 -10.09375 5.25 -10.09375 C 5.957031 -10.09375 6.585938 -9.960938 7.140625 -9.703125 C 7.703125 -9.453125 8.175781 -9.097656 8.5625 -8.640625 C 8.945312 -8.179688 9.238281 -7.640625 9.4375 -7.015625 C 9.644531 -6.390625 9.75 -5.707031 9.75 -4.96875 C 9.75 -4.226562 9.644531 -3.539062 9.4375 -2.90625 C 9.238281 -2.28125 8.945312 -1.738281 8.5625 -1.28125 C 8.175781 -0.820312 7.703125 -0.460938 7.140625 -0.203125 C 6.585938 0.046875 5.957031 0.171875 5.25 0.171875 C 4.539062 0.171875 3.90625 0.046875 3.34375 -0.203125 C 2.789062 -0.460938 2.320312 -0.820312 1.9375 -1.28125 C 1.550781 -1.738281 1.253906 -2.28125 1.046875 -2.90625 C 0.847656 -3.539062 0.75 -4.226562 0.75 -4.96875 Z M 2.265625 -4.96875 C 2.265625 -4.363281 2.328125 -3.789062 2.453125 -3.25 C 2.585938 -2.71875 2.78125 -2.253906 3.03125 -1.859375 C 3.289062 -1.460938 3.613281 -1.144531 4 -0.90625 C 4.382812 -0.675781 4.84375 -0.5625 5.375 -0.5625 C 5.851562 -0.5625 6.269531 -0.675781 6.625 -0.90625 C 6.988281 -1.144531 7.285156 -1.460938 7.515625 -1.859375 C 7.753906 -2.253906 7.929688 -2.71875 8.046875 -3.25 C 8.171875 -3.789062 8.234375 -4.363281 8.234375 -4.96875 C 8.234375 -5.570312 8.171875 -6.140625 8.046875 -6.671875 C 7.921875 -7.210938 7.726562 -7.679688 7.46875 -8.078125 C 7.21875 -8.472656 6.898438 -8.785156 6.515625 -9.015625 C 6.128906 -9.242188 5.671875 -9.359375 5.140625 -9.359375 C 4.617188 -9.359375 4.175781 -9.242188 3.8125 -9.015625 C 3.445312 -8.785156 3.148438 -8.472656 2.921875 -8.078125 C 2.691406 -7.679688 2.523438 -7.210938 2.421875 -6.671875 C 2.316406 -6.140625 2.265625 -5.570312 2.265625 -4.96875 Z M 2.265625 -4.96875 "/></g></g></g><g fill="#197fab" fill-opacity="1"><g transform="translate(184.612383, 333.413445)"><g><path d="M 2.9375 -0.75 C 3.15625 -0.707031 3.363281 -0.660156 3.5625 -0.609375 C 3.757812 -0.554688 3.953125 -0.488281 4.140625 -0.40625 L 4.140625 0 L 0.40625 0 L 0.40625 -0.40625 C 0.613281 -0.5 0.8125 -0.566406 1 -0.609375 C 1.195312 -0.660156 1.390625 -0.707031 1.578125 -0.75 L 1.578125 -9.171875 C 1.328125 -9.210938 1.109375 -9.265625 0.921875 -9.328125 C 0.734375 -9.390625 0.5625 -9.453125 0.40625 -9.515625 L 0.40625 -9.9375 L 1.65625 -9.9375 C 2.039062 -9.9375 2.457031 -9.953125 2.90625 -9.984375 C 3.351562 -10.023438 3.789062 -10.046875 4.21875 -10.046875 C 4.675781 -10.046875 5.101562 -9.992188 5.5 -9.890625 C 5.90625 -9.785156 6.253906 -9.617188 6.546875 -9.390625 C 6.847656 -9.160156 7.078125 -8.867188 7.234375 -8.515625 C 7.398438 -8.171875 7.484375 -7.753906 7.484375 -7.265625 C 7.484375 -6.578125 7.300781 -6.003906 6.9375 -5.546875 C 6.582031 -5.085938 6.09375 -4.757812 5.46875 -4.5625 C 5.875 -3.925781 6.296875 -3.289062 6.734375 -2.65625 C 7.179688 -2.019531 7.644531 -1.390625 8.125 -0.765625 L 8.890625 -0.359375 L 8.890625 0 L 7.171875 0 L 6.640625 -0.390625 C 6.378906 -0.722656 6.140625 -1.046875 5.921875 -1.359375 C 5.703125 -1.679688 5.492188 -2.003906 5.296875 -2.328125 C 5.109375 -2.660156 4.929688 -2.992188 4.765625 -3.328125 C 4.609375 -3.660156 4.441406 -4.015625 4.265625 -4.390625 L 2.9375 -4.390625 Z M 3.90625 -9.3125 C 3.675781 -9.3125 3.488281 -9.304688 3.34375 -9.296875 C 3.195312 -9.285156 3.0625 -9.265625 2.9375 -9.234375 L 2.9375 -5 L 3.953125 -5 C 4.609375 -5 5.128906 -5.207031 5.515625 -5.625 C 5.898438 -6.039062 6.09375 -6.585938 6.09375 -7.265625 C 6.09375 -7.960938 5.882812 -8.476562 5.46875 -8.8125 C 5.0625 -9.144531 4.539062 -9.3125 3.90625 -9.3125 Z M 3.90625 -9.3125 "/></g></g></g><g fill="#197fab" fill-opacity="1"><g transform="translate(197.049593, 333.413445)"><g><path d="M 3.15625 0 L 0 0 L 0 -0.40625 C 0.34375 -0.5625 0.679688 -0.675781 1.015625 -0.75 L 4.609375 -10.09375 L 5.015625 -10.09375 L 8.609375 -0.75 C 8.796875 -0.707031 8.984375 -0.660156 9.171875 -0.609375 C 9.359375 -0.566406 9.53125 -0.5 9.6875 -0.40625 L 9.6875 0 L 6.0625 0 L 6.0625 -0.40625 C 6.25 -0.488281 6.441406 -0.554688 6.640625 -0.609375 C 6.835938 -0.660156 7.03125 -0.707031 7.21875 -0.75 L 6.25 -3.34375 L 2.859375 -3.34375 L 1.921875 -0.75 C 2.328125 -0.695312 2.738281 -0.582031 3.15625 -0.40625 Z M 3.15625 -4.09375 L 6.015625 -4.09375 L 4.890625 -7.09375 L 4.625 -8.3125 L 4.59375 -8.3125 L 4.234375 -7.0625 Z M 3.15625 -4.09375 "/></g></g></g><g fill="#197fab" fill-opacity="1"><g transform="translate(210.139069, 333.413445)"><g><path d="M 6.390625 0 L 2.390625 0 L 2.390625 -0.40625 C 2.597656 -0.488281 2.804688 -0.554688 3.015625 -0.609375 C 3.234375 -0.660156 3.46875 -0.707031 3.71875 -0.75 L 3.71875 -9.1875 L 1.546875 -9.1875 L 0.796875 -7.171875 L 0.4375 -7.171875 C 0.40625 -7.359375 0.378906 -7.570312 0.359375 -7.8125 C 0.347656 -8.050781 0.332031 -8.296875 0.3125 -8.546875 C 0.300781 -8.796875 0.289062 -9.039062 0.28125 -9.28125 C 0.269531 -9.519531 0.265625 -9.738281 0.265625 -9.9375 L 8.515625 -9.9375 C 8.515625 -9.738281 8.507812 -9.519531 8.5 -9.28125 C 8.488281 -9.050781 8.472656 -8.8125 8.453125 -8.5625 C 8.441406 -8.3125 8.429688 -8.066406 8.421875 -7.828125 C 8.410156 -7.585938 8.390625 -7.367188 8.359375 -7.171875 L 7.984375 -7.171875 L 7.25 -9.1875 L 5.078125 -9.1875 L 5.078125 -0.75 C 5.328125 -0.707031 5.554688 -0.660156 5.765625 -0.609375 C 5.984375 -0.566406 6.191406 -0.5 6.390625 -0.40625 Z M 6.390625 0 "/></g></g></g><g fill="#197fab" fill-opacity="1"><g transform="translate(222.321041, 333.413445)"><g><path d="M 4.3125 0 L 0.6875 0 L 0.6875 -0.40625 C 1.050781 -0.582031 1.425781 -0.695312 1.8125 -0.75 L 1.8125 -9.171875 C 1.625 -9.203125 1.4375 -9.25 1.25 -9.3125 C 1.0625 -9.375 0.875 -9.441406 0.6875 -9.515625 L 0.6875 -9.9375 L 4.3125 -9.9375 L 4.3125 -9.515625 C 4.144531 -9.441406 3.960938 -9.375 3.765625 -9.3125 C 3.566406 -9.25 3.367188 -9.203125 3.171875 -9.171875 L 3.171875 -0.75 C 3.367188 -0.707031 3.566406 -0.660156 3.765625 -0.609375 C 3.972656 -0.554688 4.15625 -0.488281 4.3125 -0.40625 Z M 4.3125 0 "/></g></g></g><g fill="#197fab" fill-opacity="1"><g transform="translate(230.717021, 333.413445)"><g><path d="M 0.75 -4.96875 C 0.75 -5.707031 0.847656 -6.390625 1.046875 -7.015625 C 1.253906 -7.640625 1.550781 -8.179688 1.9375 -8.640625 C 2.320312 -9.097656 2.789062 -9.453125 3.34375 -9.703125 C 3.90625 -9.960938 4.539062 -10.09375 5.25 -10.09375 C 5.957031 -10.09375 6.585938 -9.960938 7.140625 -9.703125 C 7.703125 -9.453125 8.175781 -9.097656 8.5625 -8.640625 C 8.945312 -8.179688 9.238281 -7.640625 9.4375 -7.015625 C 9.644531 -6.390625 9.75 -5.707031 9.75 -4.96875 C 9.75 -4.226562 9.644531 -3.539062 9.4375 -2.90625 C 9.238281 -2.28125 8.945312 -1.738281 8.5625 -1.28125 C 8.175781 -0.820312 7.703125 -0.460938 7.140625 -0.203125 C 6.585938 0.046875 5.957031 0.171875 5.25 0.171875 C 4.539062 0.171875 3.90625 0.046875 3.34375 -0.203125 C 2.789062 -0.460938 2.320312 -0.820312 1.9375 -1.28125 C 1.550781 -1.738281 1.253906 -2.28125 1.046875 -2.90625 C 0.847656 -3.539062 0.75 -4.226562 0.75 -4.96875 Z M 2.265625 -4.96875 C 2.265625 -4.363281 2.328125 -3.789062 2.453125 -3.25 C 2.585938 -2.71875 2.78125 -2.253906 3.03125 -1.859375 C 3.289062 -1.460938 3.613281 -1.144531 4 -0.90625 C 4.382812 -0.675781 4.84375 -0.5625 5.375 -0.5625 C 5.851562 -0.5625 6.269531 -0.675781 6.625 -0.90625 C 6.988281 -1.144531 7.285156 -1.460938 7.515625 -1.859375 C 7.753906 -2.253906 7.929688 -2.71875 8.046875 -3.25 C 8.171875 -3.789062 8.234375 -4.363281 8.234375 -4.96875 C 8.234375 -5.570312 8.171875 -6.140625 8.046875 -6.671875 C 7.921875 -7.210938 7.726562 -7.679688 7.46875 -8.078125 C 7.21875 -8.472656 6.898438 -8.785156 6.515625 -9.015625 C 6.128906 -9.242188 5.671875 -9.359375 5.140625 -9.359375 C 4.617188 -9.359375 4.175781 -9.242188 3.8125 -9.015625 C 3.445312 -8.785156 3.148438 -8.472656 2.921875 -8.078125 C 2.691406 -7.679688 2.523438 -7.210938 2.421875 -6.671875 C 2.316406 -6.140625 2.265625 -5.570312 2.265625 -4.96875 Z M 2.265625 -4.96875 "/></g></g></g><g fill="#197fab" fill-opacity="1"><g transform="translate(244.614748, 333.413445)"><g><path d="M 6.90625 -9.9375 L 9.96875 -9.9375 L 9.96875 -9.515625 C 9.570312 -9.253906 9.1875 -9.066406 8.8125 -8.953125 L 8.8125 0.171875 L 8 0.171875 L 2.859375 -7.640625 L 2.296875 -8.75 L 2.25 -8.75 L 2.390625 -7.640625 L 2.390625 -0.90625 C 2.773438 -0.800781 3.132812 -0.632812 3.46875 -0.40625 L 3.46875 0 L 0.40625 0 L 0.40625 -0.40625 C 0.582031 -0.507812 0.765625 -0.601562 0.953125 -0.6875 C 1.148438 -0.769531 1.359375 -0.84375 1.578125 -0.90625 L 1.578125 -9.03125 C 1.390625 -9.113281 1.203125 -9.195312 1.015625 -9.28125 C 0.828125 -9.363281 0.65625 -9.445312 0.5 -9.53125 L 0.5 -9.9375 L 2.890625 -9.9375 L 7.359375 -3.1875 L 8.015625 -1.96875 L 8.078125 -1.96875 L 8 -3.1875 L 8 -8.953125 C 7.800781 -9.035156 7.609375 -9.125 7.421875 -9.21875 C 7.242188 -9.3125 7.070312 -9.410156 6.90625 -9.515625 Z M 6.90625 -9.9375 "/></g></g></g></svg>